<?xml version="1.0" ?>
<svg baseProfile="full" height="600px" version="1.1" viewBox="42.37133587936047 1.6760632699999993 9.131528241279089 9.201413460000007" width="596px" xmlns="http://www.w3.org/2000/svg" xmlns:ev="http://www.w3.org/2001/xml-events" xmlns:xlink="http://www.w3.org/1999/xlink">
	<defs/>
	<path d="M 43.4907,9.75002 C 43.3211,9.57914 43.2056,9.36141 43.1588,9.12436 C 43.112,8.88732 43.136,8.64162 43.2278,8.41832 C 43.3196,8.19503 43.475,8.00417 43.6744,7.86989 C 43.8738,7.73561 44.1083,7.66394 44.3481,7.66394 C 44.588,7.66394 44.8224,7.73561 45.0218,7.86989 C 45.2213,8.00417 45.3767,8.19503 45.4685,8.41832 C 45.5602,8.64162 45.5842,8.88732 45.5374,9.12436 C 45.4906,9.36141 45.3751,9.57914 45.2055,9.75002 C 44.978,9.9789 44.6696,10.1075 44.3481,10.1075 C 44.0266,10.1075 43.7183,9.9789 43.4907,9.75002 L 43.4907,9.75002 M 45.0337,8.19421 C 44.898,8.0574 44.7251,7.96422 44.5369,7.92645 C 44.3486,7.88869 44.1534,7.90803 43.9761,7.98204 C 43.7987,8.05604 43.6471,8.18139 43.5405,8.34222 C 43.4338,8.50305 43.3769,8.69214 43.3769,8.88557 C 43.3769,9.07901 43.4338,9.2681 43.5405,9.42893 C 43.6471,9.58976 43.7987,9.7151 43.9761,9.78911 C 44.1534,9.86312 44.3486,9.88246 44.5369,9.84469 C 44.7251,9.80693 44.898,9.71375 45.0337,9.57694 C 45.2154,9.39343 45.3175,9.14479 45.3175,8.88557 C 45.3175,8.62635 45.2154,8.37772 45.0337,8.19421 L 45.0337,8.19421 M 48.6687,4.53212 C 48.4991,4.36124 48.3836,4.14351 48.3368,3.90647 C 48.29,3.66943 48.314,3.42372 48.4058,3.20043 C 48.4975,2.97713 48.653,2.78627 48.8524,2.652 C 49.0518,2.51772 49.2863,2.44604 49.5261,2.44604 C 49.7659,2.44604 50.0004,2.51772 50.1998,2.652 C 50.3992,2.78627 50.5547,2.97713 50.6464,3.20043 C 50.7382,3.42372 50.7622,3.66943 50.7154,3.90647 C 50.6686,4.14351 50.5531,4.36124 50.3835,4.53212 C 50.1558,4.76077 49.8475,4.88917 49.5261,4.88917 C 49.2047,4.88917 48.8964,4.76077 48.6687,4.53212 M 50.2117,2.97631 C 50.0761,2.83982 49.9033,2.74692 49.7153,2.70935 C 49.5272,2.67177 49.3324,2.69121 49.1553,2.7652 C 48.9782,2.83919 48.8269,2.96441 48.7204,3.12504 C 48.614,3.28568 48.5571,3.47451 48.5571,3.66768 C 48.5571,3.86085 48.614,4.04968 48.7204,4.21031 C 48.8269,4.37095 48.9782,4.49617 49.1553,4.57016 C 49.3324,4.64415 49.5272,4.66358 49.7153,4.62601 C 49.9033,4.58843 50.0761,4.49553 50.2117,4.35905 C 50.3936,4.17566 50.4958,3.92698 50.4958,3.66768 C 50.4958,3.40838 50.3936,3.1597 50.2117,2.97631 L 50.2117,2.97631" fill="#000000" stroke="none" stroke-width="1"/>
</svg>
