<svg width="119" height="43" viewBox="0 0 119 43" fill="none" xmlns="http://www.w3.org/2000/svg"><ellipse cx="21.792" cy="21.741" rx="20.92" ry="20.274" fill="#F46524"/><path d="M16.14 33.32h5.205v-8.728h3.799l4.664 8.727h5.746l-5.23-9.568c2.802-1.203 4.352-3.643 4.352-7.009 0-4.892-3.233-8.042-8.823-8.042H16.14v24.62Zm5.205-12.911v-7.453h3.51c3.005 0 4.46 1.334 4.46 3.786 0 2.44-1.455 3.667-4.436 3.667h-3.534ZM46.304 33.68c5.601 0 9.088-3.835 9.088-9.52 0-5.723-3.487-9.545-9.088-9.545-5.602 0-9.088 3.822-9.088 9.544 0 5.686 3.486 9.521 9.088 9.521Zm.024-3.967c-2.585 0-3.907-2.368-3.907-5.59 0-3.221 1.322-5.602 3.907-5.602 2.536 0 3.858 2.38 3.858 5.602 0 3.222-1.322 5.59-3.858 5.59Zm20.736 3.967c5.602 0 9.088-3.835 9.088-9.52 0-5.723-3.486-9.545-9.088-9.545-5.602 0-9.088 3.822-9.088 9.544 0 5.686 3.486 9.521 9.088 9.521Zm.024-3.967c-2.584 0-3.907-2.368-3.907-5.59 0-3.221 1.323-5.602 3.907-5.602 2.537 0 3.859 2.38 3.859 5.602 0 3.222-1.323 5.59-3.859 5.59Zm12.394-14.858v19.294c0 1.394-.59 2.091-2.236 2.091-.216 0-.409 0-.673-.024v4.003c.372.012.673.024 1.034.024 4.351 0 6.996-1.73 6.996-6.01V14.855h-5.121Zm2.548-2.38c1.527 0 2.777-1.166 2.777-2.597 0-1.418-1.25-2.584-2.777-2.584-1.514 0-2.765 1.166-2.765 2.584 0 1.43 1.25 2.597 2.765 2.597Zm11.796 10.17c.012-2.38 1.467-3.775 3.558-3.775 2.08 0 3.306 1.334 3.294 3.606V33.32h5.121V21.563c.012-4.328-2.537-6.948-6.383-6.948-2.801 0-4.676 1.322-5.518 3.498h-.216V8.7h-4.977v24.62h5.12V22.644Z" fill="#204289"/></svg>