<svg width="145" height="163" viewBox="0 0 145 163" fill="none" xmlns="http://www.w3.org/2000/svg">
<g clip-path="url(#clip0_79_2213)">
<path d="M45.7848 14.3115L41.5012 9.99499C41.2978 9.7895 41.1836 9.5111 41.1836 9.22086C41.1836 8.93062 41.2978 8.65223 41.5012 8.44674L49.0923 0.797252C49.2963 0.592281 49.5725 0.477173 49.8606 0.477173C50.1486 0.477173 50.4249 0.592281 50.6288 0.797252L54.9124 5.1138C55.116 5.31917 55.2304 5.59761 55.2304 5.88793C55.2304 6.17824 55.116 6.45668 54.9124 6.66205L47.3213 14.3115C47.1174 14.5165 46.8411 14.6316 46.5531 14.6316C46.265 14.6316 45.9888 14.5165 45.7848 14.3115V14.3115ZM50.457 0.976005C50.2987 0.816891 50.0842 0.727539 49.8606 0.727539C49.6369 0.727539 49.4224 0.816891 49.2641 0.976005L41.673 8.62644C41.5151 8.786 41.4264 9.00214 41.4264 9.22748C41.4264 9.45282 41.5151 9.66897 41.673 9.82853L45.9585 14.1404C46.1168 14.2995 46.3313 14.3888 46.5549 14.3888C46.7786 14.3888 46.9931 14.2995 47.1514 14.1404L54.7434 6.49086C54.9013 6.3313 54.99 6.11516 54.99 5.88982C54.99 5.66448 54.9013 5.44834 54.7434 5.28877L50.457 0.976005Z" fill="#204289"/>
<path d="M43.4907 9.75002C43.3211 9.57914 43.2056 9.36141 43.1588 9.12436C43.112 8.88732 43.136 8.64162 43.2278 8.41832C43.3196 8.19503 43.475 8.00417 43.6744 7.86989C43.8738 7.73561 44.1083 7.66394 44.3481 7.66394C44.588 7.66394 44.8224 7.73561 45.0218 7.86989C45.2213 8.00417 45.3767 8.19503 45.4685 8.41832C45.5602 8.64162 45.5842 8.88732 45.5374 9.12436C45.4906 9.36141 45.3751 9.57914 45.2055 9.75002C44.978 9.9789 44.6696 10.1075 44.3481 10.1075C44.0266 10.1075 43.7183 9.9789 43.4907 9.75002V9.75002ZM45.0337 8.19421C44.898 8.0574 44.7251 7.96422 44.5369 7.92645C44.3486 7.88869 44.1534 7.90803 43.9761 7.98204C43.7987 8.05604 43.6471 8.18139 43.5405 8.34222C43.4338 8.50305 43.3769 8.69214 43.3769 8.88557C43.3769 9.07901 43.4338 9.2681 43.5405 9.42893C43.6471 9.58976 43.7987 9.7151 43.9761 9.78911C44.1534 9.86312 44.3486 9.88246 44.5369 9.84469C44.7251 9.80693 44.898 9.71375 45.0337 9.57694C45.2154 9.39343 45.3175 9.14479 45.3175 8.88557C45.3175 8.62635 45.2154 8.37772 45.0337 8.19421V8.19421Z" fill="#204289"/>
<path d="M46.0789 7.14064C45.9093 6.96976 45.7938 6.75203 45.7469 6.51499C45.7001 6.27794 45.7241 6.03224 45.8159 5.80895C45.9077 5.58565 46.0631 5.3948 46.2625 5.26052C46.4619 5.12624 46.6964 5.05457 46.9362 5.05457C47.1761 5.05457 47.4105 5.12624 47.61 5.26052C47.8094 5.3948 47.9648 5.58565 48.0566 5.80895C48.1484 6.03224 48.1724 6.27794 48.1255 6.51499C48.0787 6.75203 47.9632 6.96976 47.7936 7.14064C47.5661 7.36952 47.2577 7.49807 46.9362 7.49807C46.6148 7.49807 46.3064 7.36952 46.0789 7.14064V7.14064ZM47.6228 5.58578C47.4871 5.44897 47.3142 5.35579 47.1259 5.31802C46.9376 5.28026 46.7425 5.2996 46.5652 5.37361C46.3878 5.44761 46.2362 5.57296 46.1296 5.73379C46.0229 5.89462 45.966 6.08371 45.966 6.27714C45.966 6.47058 46.0229 6.65967 46.1296 6.8205C46.2362 6.98133 46.3878 7.10667 46.5652 7.18068C46.7425 7.25468 46.9376 7.27403 47.1259 7.23626C47.3142 7.1985 47.4871 7.10532 47.6228 6.96851C47.8045 6.785 47.9065 6.53636 47.9065 6.27714C47.9065 6.01792 47.8045 5.76929 47.6228 5.58578V5.58578Z" fill="#204289"/>
<path d="M48.6687 4.53212C48.4991 4.36124 48.3836 4.14351 48.3368 3.90647C48.29 3.66943 48.314 3.42372 48.4058 3.20043C48.4975 2.97713 48.653 2.78627 48.8524 2.652C49.0518 2.51772 49.2863 2.44604 49.5261 2.44604C49.7659 2.44604 50.0004 2.51772 50.1998 2.652C50.3992 2.78627 50.5547 2.97713 50.6464 3.20043C50.7382 3.42372 50.7622 3.66943 50.7154 3.90647C50.6686 4.14351 50.5531 4.36124 50.3835 4.53212C50.1558 4.76077 49.8475 4.88917 49.5261 4.88917C49.2047 4.88917 48.8964 4.76077 48.6687 4.53212ZM50.2117 2.97631C50.0761 2.83982 49.9033 2.74692 49.7153 2.70935C49.5272 2.67177 49.3324 2.69121 49.1553 2.7652C48.9782 2.83919 48.8269 2.96441 48.7204 3.12504C48.614 3.28568 48.5571 3.47451 48.5571 3.66768C48.5571 3.86085 48.614 4.04968 48.7204 4.21031C48.8269 4.37095 48.9782 4.49617 49.1553 4.57016C49.3324 4.64415 49.5272 4.66358 49.7153 4.62601C49.9033 4.58843 50.0761 4.49553 50.2117 4.35905C50.3936 4.17566 50.4958 3.92698 50.4958 3.66768C50.4958 3.40838 50.3936 3.1597 50.2117 2.97631V2.97631Z" fill="#204289"/>
<path d="M48.6516 9.73305C48.482 9.56217 48.3665 9.34444 48.3197 9.1074C48.2729 8.87035 48.2969 8.62465 48.3887 8.40135C48.4804 8.17806 48.6359 7.9872 48.8353 7.85292C49.0347 7.71865 49.2692 7.64697 49.509 7.64697C49.7489 7.64697 49.9833 7.71865 50.1827 7.85292C50.3822 7.9872 50.5376 8.17806 50.6294 8.40135C50.7211 8.62465 50.7451 8.87035 50.6983 9.1074C50.6515 9.34444 50.536 9.56217 50.3664 9.73305C50.1389 9.96193 49.8305 10.0905 49.509 10.0905C49.1875 10.0905 48.8792 9.96193 48.6516 9.73305V9.73305ZM50.1956 8.17818C50.06 8.04157 49.8872 7.94853 49.6992 7.91085C49.5111 7.87316 49.3162 7.89252 49.139 7.96647C48.9619 8.04042 48.8104 8.16564 48.7039 8.32631C48.5974 8.48697 48.5405 8.67586 48.5405 8.86908C48.5405 9.0623 48.5974 9.25119 48.7039 9.41185C48.8104 9.57251 48.9619 9.69774 49.139 9.77169C49.3162 9.84564 49.5111 9.865 49.6992 9.82731C49.8872 9.78963 50.06 9.69659 50.1956 9.55997C50.377 9.3765 50.4788 9.12807 50.4788 8.86908C50.4788 8.61009 50.377 8.36166 50.1956 8.17818V8.17818Z" fill="#204289"/>
<path d="M46.0635 12.3424C45.8939 12.1715 45.7784 11.9538 45.7316 11.7168C45.6848 11.4797 45.7088 11.234 45.8005 11.0107C45.8923 10.7874 46.0477 10.5966 46.2472 10.4623C46.4466 10.328 46.681 10.2563 46.9209 10.2563C47.1607 10.2563 47.3952 10.328 47.5946 10.4623C47.794 10.5966 47.9494 10.7874 48.0412 11.0107C48.133 11.234 48.157 11.4797 48.1102 11.7168C48.0634 11.9538 47.9479 12.1715 47.7783 12.3424C47.5507 12.5713 47.2424 12.6999 46.9209 12.6999C46.5994 12.6999 46.291 12.5713 46.0635 12.3424V12.3424ZM47.6065 10.7866C47.4708 10.6498 47.2979 10.5566 47.1096 10.5189C46.9213 10.4811 46.7262 10.5004 46.5488 10.5744C46.3715 10.6485 46.2199 10.7738 46.1132 10.9346C46.0066 11.0955 45.9497 11.2845 45.9497 11.478C45.9497 11.6714 46.0066 11.8605 46.1132 12.0213C46.2199 12.1822 46.3715 12.3075 46.5488 12.3815C46.7262 12.4555 46.9213 12.4749 47.1096 12.4371C47.2979 12.3993 47.4708 12.3062 47.6065 12.1693C47.7882 11.9858 47.8902 11.7372 47.8902 11.478C47.8902 11.2188 47.7882 10.9701 47.6065 10.7866V10.7866Z" fill="#204289"/>
<path d="M51.2412 7.12368C51.0716 6.95279 50.9561 6.73506 50.9093 6.49802C50.8625 6.26098 50.8865 6.01528 50.9783 5.79198C51.07 5.56869 51.2255 5.37783 51.4249 5.24355C51.6243 5.10927 51.8588 5.0376 52.0986 5.0376C52.3385 5.0376 52.5729 5.10927 52.7723 5.24355C52.9718 5.37783 53.1272 5.56869 53.219 5.79198C53.3107 6.01528 53.3347 6.26098 53.2879 6.49802C53.2411 6.73506 53.1256 6.95279 52.956 7.12368C52.7284 7.35233 52.42 7.48072 52.0986 7.48072C51.7772 7.48072 51.4689 7.35233 51.2412 7.12368V7.12368ZM52.7842 5.56786C52.6486 5.43138 52.4758 5.33848 52.2878 5.3009C52.0998 5.26333 51.9049 5.28276 51.7278 5.35675C51.5507 5.43074 51.3994 5.55597 51.2929 5.7166C51.1865 5.87723 51.1297 6.06607 51.1297 6.25923C51.1297 6.4524 51.1865 6.64123 51.2929 6.80187C51.3994 6.9625 51.5507 7.08772 51.7278 7.16171C51.9049 7.23571 52.0998 7.25514 52.2878 7.21756C52.4758 7.17999 52.6486 7.08709 52.7842 6.9506C52.9659 6.76725 53.0679 6.51877 53.0679 6.25971C53.0679 6.00064 52.9659 5.75216 52.7842 5.56881V5.56786Z" fill="#204289"/>
<path d="M86.7516 14.8422L84.5797 13.2268L83.9847 13.7886L76.4001 5.62835L76.1927 5.82413L75.547 5.12993L76.5212 4.20968L74.3841 1.91048L73.8491 2.41553L73.2034 1.72133L75.027 0L75.6727 0.695151L75.1378 1.2002L77.2749 3.4994L78.2453 2.58388L78.8901 3.27903L78.6827 3.47481L86.2673 11.636L85.6722 12.1978L87.1298 14.4866C87.164 14.5393 87.1787 14.6024 87.1712 14.665C87.1637 14.7275 87.1346 14.7854 87.089 14.8284C87.0434 14.8714 86.9842 14.8969 86.9218 14.9003C86.8594 14.9037 86.7978 14.8848 86.7478 14.8469L86.7516 14.8422ZM84.5544 12.7927L86.6624 14.3608L85.248 12.1363L85.8027 11.6123L78.2181 3.45211L78.4256 3.25539L78.2331 3.0492L77.2589 3.96851L74.6685 1.18128L75.2034 0.676236L75.0157 0.470054L73.6727 1.73267L73.8604 1.9398L74.3963 1.43475L76.9858 4.22198L76.0116 5.14128L76.1993 5.34746L76.4067 5.15168L83.9913 13.3128L84.5544 12.7927Z" fill="#204289"/>
<path d="M8.88502 28.0151H2.05226C1.68625 28.0146 1.33537 27.8678 1.07656 27.607C0.817746 27.3462 0.672127 26.9927 0.671631 26.6238V16.6818H10.2619V26.6238C10.2614 26.992 10.1163 27.345 9.8583 27.6057C9.6003 27.8664 9.25039 28.0136 8.88502 28.0151V28.0151ZM0.907212 16.9144V26.6238C0.90746 26.9308 1.02858 27.2251 1.24396 27.4421C1.45935 27.6592 1.75141 27.7812 2.05602 27.7815H8.88502C9.18972 27.7812 9.48187 27.6592 9.69741 27.4422C9.91294 27.2252 10.0343 26.9309 10.0348 26.6238V16.9144H0.907212Z" fill="#204289"/>
<path d="M10.9338 16.9144H0.000488281V14.8961H10.9338V16.9144ZM0.23419 16.6818H10.702V15.1288H0.231375L0.23419 16.6818Z" fill="#204289"/>
<path d="M10.2619 26.3003H0.671631V18.8778H10.2619V26.3003ZM0.907212 26.0667H10.0348V19.1105H0.907212V26.0667Z" fill="#204289"/>
<path d="M7.76559 76.8052H6.35023C5.39011 76.8039 4.46967 76.419 3.79085 75.7347C3.11202 75.0505 2.73024 74.1229 2.72925 73.1554V66.9369C2.73024 65.9694 3.11202 65.0418 3.79085 64.3575C4.46967 63.6733 5.39011 63.2884 6.35023 63.2871H7.76935C8.72964 63.2881 9.65031 63.673 10.3293 64.3572C11.0084 65.0415 11.3903 65.9692 11.3913 66.9369V73.1554C11.3903 74.1237 11.0078 75.052 10.328 75.7364C9.64817 76.4208 8.72653 76.8052 7.76559 76.8052V76.8052ZM6.35023 63.4715C5.43856 63.4728 4.56458 63.8383 3.91993 64.4879C3.27528 65.1375 2.91257 66.0182 2.91133 66.9369V73.1554C2.91232 74.0742 3.27492 74.9552 3.9196 75.605C4.56428 76.2548 5.4384 76.6204 6.35023 76.6217H7.76935C8.68126 76.6207 9.55552 76.2551 10.2003 75.6053C10.845 74.9554 11.2075 74.0743 11.2083 73.1554V66.9369C11.2073 66.0181 10.8446 65.1373 10.1999 64.4876C9.55522 63.838 8.6811 63.4725 7.76935 63.4715H6.35023Z" fill="#204289"/>
<path d="M8.82035 63.4715H5.29321V60.9973H8.82035V63.4715ZM5.47623 63.287H8.63827V61.1808H5.47623V63.287Z" fill="#204289"/>
<path d="M11.3881 73.248H2.72607V66.8451H11.3881V73.248ZM2.90816 73.0636H11.2051V67.0286H2.90816V73.0636Z" fill="#204289"/>
<path d="M116.981 37.0558H104.433V39.1535H116.981V37.0558Z" fill="white"/>
<g style="mix-blend-mode:hard-light">
<path d="M130.038 26.1934H19.5106C15.9988 26.1934 13.1519 29.0622 13.1519 32.601V65.8964C13.1519 69.4353 15.9988 72.3041 19.5106 72.3041H130.038C133.55 72.3041 136.397 69.4353 136.397 65.8964V32.601C136.397 29.0622 133.55 26.1934 130.038 26.1934Z" fill="#F5F5F5"/>
</g>
<path d="M125.886 39.4307H110.824V40.9534H125.886V39.4307Z" fill="#B8D6FF"/>
<path d="M128.136 44.1445H110.824V45.6672H128.136V44.1445Z" fill="#B8D6FF"/>
<path d="M119.755 48.8326H110.799V50.3554H119.755V48.8326Z" fill="#B8D6FF"/>
<path d="M124.598 53.5209H110.799V55.0436H124.598V53.5209Z" fill="#B8D6FF"/>
<path d="M42.6591 68.068H29.2339V69.7345H42.6591V68.068Z" fill="#D6D6D6"/>
<path d="M45.9167 65.0991H25.9778V66.7656H45.9167V65.0991Z" fill="#D6D6D6"/>
<path d="M39.401 42.7838C39.7077 40.8797 38.4245 39.0856 36.535 38.7765C34.6454 38.4674 32.865 39.7604 32.5583 41.6645C32.2516 43.5686 33.5347 45.3627 35.4243 45.6718C37.3138 45.9809 39.0943 44.6879 39.401 42.7838Z" fill="url(#paint0_linear_79_2213)"/>
<path d="M42.2295 53.6089V60.252C40.2551 61.1516 38.1131 61.6168 35.9463 61.6168C33.7795 61.6168 31.6375 61.1516 29.6631 60.252V53.6089C29.6529 52.7709 29.8079 51.9392 30.1191 51.162C30.4303 50.3849 30.8915 49.6777 31.476 49.0815C32.0604 48.4853 32.7565 48.012 33.5239 47.6889C34.2913 47.3658 35.1147 47.1995 35.9463 47.1995C36.778 47.1995 37.6013 47.3658 38.3687 47.6889C39.1361 48.012 39.8322 48.4853 40.4166 49.0815C41.0011 49.6777 41.4623 50.3849 41.7735 51.162C42.0847 51.9392 42.2397 52.7709 42.2295 53.6089V53.6089Z" fill="url(#paint1_linear_79_2213)"/>
<path d="M89.9279 37.0558H57.6394V39.1535H89.9279V37.0558Z" fill="white"/>
<path d="M72.801 32.2795H57.6394V34.3763H72.801V32.2795Z" fill="white"/>
<path d="M35.9464 62.032C33.7199 62.0377 31.5184 61.5596 29.4919 60.6303C26.7638 59.3756 24.4506 57.3578 22.8274 54.8169C21.2041 52.276 20.3391 49.3188 20.3352 46.297C20.3352 37.6204 27.3397 30.561 35.9511 30.561C44.5624 30.561 51.566 37.6204 51.566 46.297C51.5616 49.3194 50.6959 52.2769 49.0719 54.8179C47.4478 57.3588 45.1336 59.3763 42.4047 60.6303C40.377 61.5602 38.1741 62.0383 35.9464 62.032V62.032ZM35.9464 31.3886C27.7902 31.3886 21.1546 38.0753 21.1546 46.2941C21.158 49.1576 21.9778 51.9599 23.5164 54.3673C25.0551 56.7748 27.2478 58.686 29.8335 59.8737C31.7542 60.7489 33.838 61.2016 35.9459 61.2016C38.0539 61.2016 40.1376 60.7489 42.0583 59.8737C44.6436 58.6862 46.836 56.7754 48.3746 54.3685C49.9132 51.9616 50.7333 49.16 50.7372 46.297C50.7372 38.0781 44.1016 31.3914 35.9464 31.3914V31.3886Z" fill="url(#paint2_linear_79_2213)"/>
<path d="M72.1219 43.1277H71.2979V63.2728H72.1219V43.1277Z" fill="#C9E0FF"/>
<path d="M75.9095 43.1277H75.0854V63.2728H75.9095V43.1277Z" fill="#C9E0FF"/>
<path d="M79.6976 43.1277H78.8735V63.2728H79.6976V43.1277Z" fill="#C9E0FF"/>
<path d="M83.4859 43.1277H82.6619V63.2728H83.4859V43.1277Z" fill="#C9E0FF"/>
<path d="M87.2742 43.1277H86.4502V63.2728H87.2742V43.1277Z" fill="#C9E0FF"/>
<path d="M91.0616 43.1277H90.2375V63.2728H91.0616V43.1277Z" fill="#C9E0FF"/>
<path d="M94.8507 43.1277H94.0266V63.2728H94.8507V43.1277Z" fill="#C9E0FF"/>
<path d="M98.639 43.1277H97.8149V63.2728H98.639V43.1277Z" fill="#C9E0FF"/>
<path d="M102.427 43.1277H101.603V63.2728H102.427V43.1277Z" fill="#C9E0FF"/>
<path d="M72.1219 58.2537H71.2979V63.2729H72.1219V58.2537Z" fill="#F46524"/>
<path d="M75.9095 53.2003H75.0854V63.2729H75.9095V53.2003Z" fill="#F46524"/>
<path d="M79.6976 49.4266H78.8735V63.2719H79.6976V49.4266Z" fill="#F46524"/>
<path d="M83.4859 54.3419H82.6619V63.272H83.4859V54.3419Z" fill="#F46524"/>
<path d="M87.2742 48.146H86.4502V63.2719H87.2742V48.146Z" fill="#F46524"/>
<path d="M91.0616 54.9651H90.2375V63.2719H91.0616V54.9651Z" fill="#F46524"/>
<path d="M94.8507 49.9808H94.0266V63.2719H94.8507V49.9808Z" fill="#F46524"/>
<path d="M98.639 56.627H97.8149V63.273H98.639V56.627Z" fill="#F46524"/>
<path d="M102.427 49.9808H101.603V63.2719H102.427V49.9808Z" fill="#F46524"/>
<path d="M145 66.7722L142.25 64.0001H126.985V50.8424H145V66.7722Z" fill="url(#paint3_linear_79_2213)"/>
<g opacity="0.9">
<path opacity="0.9" d="M75.4687 115.433H47.4187C47.4863 114.73 47.5539 114.043 47.6205 113.352C47.9236 110.318 48.2512 107.419 48.5713 104.961C48.6135 104.648 48.866 103.944 48.9073 103.656C49.1344 101.944 49.37 100.724 49.4545 100.114C49.4996 99.8648 49.5585 99.6185 49.6309 99.3761C49.9341 99.2323 49.6225 99.2664 49.9678 99.1472C58.0836 96.2068 73.7276 99.3174 73.7276 99.3174C73.7276 99.3174 73.7361 99.3931 73.7614 99.5369C73.7774 99.7156 73.8112 99.9946 73.8553 100.351C73.9491 101.13 74.0824 102.283 74.2307 103.631V103.656C74.2392 103.699 74.2392 103.741 74.2476 103.783C74.593 106.8 75.0304 110.707 75.2913 113.352C75.3673 114.196 75.4349 114.916 75.4687 115.433Z" fill="#2F4563"/>
<path opacity="0.9" d="M49.2426 100.529L49.0229 100.506C49.0286 100.454 49.5467 95.28 49.3608 93.6863L49.5795 93.6608C49.771 95.2781 49.267 100.315 49.2426 100.529Z" fill="#E0A05F"/>
<path opacity="0.9" d="M82.6709 74.2854L76.6087 74.7904C76.5421 74.0262 76.4952 73.5089 76.4952 73.5089C76.4952 73.5089 74.7363 93.2672 74.7363 96.3183C74.7363 99.3694 74.4275 106.895 74.4275 106.895C74.4275 106.895 72.0154 110.592 60.2974 110.121C60.2974 110.121 48.0961 108.779 48.6845 103.296C50.4734 86.5825 49.2618 74.4764 48.9661 74.3279C48.8722 74.2778 48.5653 75.2652 48.2237 76.6527L40.9827 76.2129C42.3295 68.9606 44.7444 59.254 46.4798 58.4738C48.2932 57.6604 54.0653 55.8511 57.7924 54.7114C59.723 54.1213 61.1046 53.7108 61.1046 53.7108H67.8069C67.8069 53.7108 68.2442 53.8517 68.9613 54.1052C71.8887 55.1456 79.4685 58.0491 80.8257 60.8553C81.7633 62.7875 82.2495 68.6315 82.6709 74.2854Z" fill="#3A7EB8"/>
<path opacity="0.9" d="M75.5604 97.457C75.4853 99.0336 76.0485 105.932 76.7299 113.357C76.7974 114.043 76.8641 114.738 76.9232 115.437H69.471C69.4457 114.752 69.4128 114.056 69.3875 113.357C68.7399 97.9062 67.9665 80.4897 67.6887 77.1842C67.1668 71.0224 68.967 54.1071 68.967 54.1071C72.6274 54.8949 77.1841 57.7171 77.1841 57.7171L76.9964 72.8033C76.9964 72.8033 75.7369 93.7448 75.5604 97.457Z" fill="#DBDFF0"/>
<path opacity="0.9" d="M76.4956 73.5089C76.4956 73.5089 76.6983 80.3252 76.5153 80.9106C76.3323 81.496 75.1318 81.6265 75.1318 81.6265L74.6813 88.6121C74.6813 88.6121 81.5901 87.7344 83.0843 85.7539C84.5785 83.7735 83.0205 69.6246 82.5512 66.46C82.0819 63.2954 81.8567 60.3464 79.8772 58.9883C77.8978 57.6301 74.3904 56.2692 74.3904 56.2692L76.4956 73.5089Z" fill="#DBDFF0"/>
<path opacity="0.9" d="M57.7975 73.472C57.7975 73.472 56.1663 94.9223 54.5013 113.357C54.4421 114.052 54.3746 114.747 54.3136 115.437H46.3733C46.4671 114.752 46.5497 114.056 46.6427 113.357C47.6751 105.153 48.6446 97.2783 48.7873 95.33C49.1148 90.9311 48.9637 74.3279 48.9637 74.3279L50.1839 57.1232C50.1839 57.1232 55.0532 55.2931 57.7947 54.7076C57.7975 54.7076 58.202 67.4294 57.7975 73.472Z" fill="#DBDFF0"/>
<path opacity="0.9" d="M50.6754 56.9417C50.6754 56.9417 45.853 57.5441 45.0919 59.9682C44.3307 62.3922 41.4831 71.6769 40.7012 76.2053C39.9194 80.7338 38.3633 86.6175 38.3633 86.6175L43.8952 91.0258C43.8952 91.0258 46.7531 87.0818 47.6279 81.3268C48.5026 75.5717 49.6383 73.0322 49.6383 73.0322L50.6754 56.9417Z" fill="#DBDFF0"/>
<path opacity="0.9" d="M39.4409 92.7433C39.4409 92.7433 38.6722 95.0491 38.0987 95.2477C37.5253 95.4463 36.9011 96.2531 36.4206 96.5311C35.94 96.8092 34.367 97.0986 33.9803 97.5573C33.8236 97.7465 33.3064 99.2853 32.9479 99.638C32.5893 99.9908 31.7784 100.606 32.0797 100.908C32.381 101.211 33.2539 100.858 33.2539 100.858C33.2539 100.858 32.9451 101.196 33.1281 101.547C33.4838 102.229 33.9606 102.209 33.9606 102.209C33.9606 102.209 33.8667 102.759 34.0826 103.004C34.565 103.544 35.0259 103.513 35.0259 103.513C35.1004 103.794 35.2717 104.04 35.5092 104.206C36.0226 104.569 36.5801 104.273 36.5801 104.273C36.5801 104.273 37.1179 104.88 37.5393 104.707C37.9608 104.535 38.1804 104.181 38.4713 103.956C38.7623 103.732 40.6742 100.992 41.2335 98.5561C41.7929 96.1197 42.9858 94.0626 42.9858 94.0626L39.4409 92.7433Z" fill="#EEA987"/>
<path opacity="0.9" d="M45.3062 107.329L52.7678 94.7455L34.9801 82.335L26.5161 94.6519L45.3062 107.329Z" fill="#285173"/>
<path opacity="0.9" d="M44.7928 105.966L51.3214 94.7399L35.4935 83.6969L27.9624 94.6576L44.7928 105.966Z" fill="#EDE5DF"/>
<path opacity="0.9" d="M33.3479 100.55C33.3479 100.55 35.0233 98.2355 35.9693 98.1778C36.9154 98.1201 36.356 98.9883 36.356 98.9883C36.356 98.9883 36.8948 98.1201 37.61 98.4757C38.3252 98.8313 37.6165 99.814 37.6165 99.814C37.6165 99.814 38.1966 99.2654 38.7606 99.883C39.3247 100.501 38.5598 101.182 38.5598 101.182C38.5598 101.182 39.7893 100.867 39.6269 101.92C39.3538 103.701 37.6043 104.728 37.6043 104.728C37.6043 104.728 37.0609 104.963 36.5588 104.329C36.5588 104.329 35.4663 104.897 35.0054 103.573C35.0054 103.573 33.5976 103.402 33.9158 102.259C33.9148 102.257 32.4422 101.882 33.3479 100.55Z" fill="#DB9C7C"/>
<path opacity="0.9" d="M56.9172 85.5866C56.9172 85.5866 56.402 85.4759 54.8777 86.154C52.8533 87.0544 50.3801 88.4561 50.2731 88.9677C50.1192 89.7054 50.7171 89.7754 51.8565 89.0831C52.9959 88.3908 53.3676 88.161 53.3676 88.161C53.3676 88.161 51.5787 89.8937 51.4417 90.5113C51.3046 91.1288 51.8021 91.6008 52.1512 91.3625C52.5004 91.1241 53.1742 90.4413 53.1742 90.4413C53.1742 90.4413 52.5172 91.2679 52.7716 91.6244C52.9593 91.8883 53.2709 92.2099 54.0574 91.5734C54.0574 91.5734 54.1841 92.5787 55.2044 92.121C56.2246 91.6632 57.746 90.5557 58.4584 89.9542C59.403 89.1661 60.4207 88.4715 61.4974 87.8801L60.6584 85.7048C60.6584 85.7048 58.6977 85.2404 57.9647 85.3756C57.3227 85.4958 56.9172 85.5866 56.9172 85.5866Z" fill="#EEA886"/>
<path opacity="0.9" d="M53.0389 87.4993L49.1392 92.9561L49.5969 93.2882L53.4967 87.8314L53.0389 87.4993Z" fill="#F46524"/>
<path opacity="0.9" d="M53.3721 88.161C53.3721 88.161 51.1336 89.6742 50.548 89.5569C49.9623 89.4396 50.0965 88.84 50.9919 88.265C51.8873 87.69 53.4453 86.8397 53.4453 86.8397C53.4453 86.8397 54.1127 87.5292 53.3721 88.161Z" fill="#EEA886"/>
<path opacity="0.9" d="M59.2917 84.3939C59.2917 84.3939 74.6927 81.2728 75.834 81.6426L76.0874 88.3577C76.0874 88.3577 70.0224 89.7934 59.8183 88.7918L59.2917 84.3939Z" fill="#DBDFF0"/>
<path opacity="0.9" d="M49.5962 93.2833L48.7937 93.9198L49.1382 92.9504L49.5962 93.2833Z" fill="#F46524"/>
<path opacity="0.9" d="M34.4052 94.0409C33.0236 93.2748 32.5327 91.6415 33.3089 90.393C34.0851 89.1446 35.8346 88.754 37.2162 89.5201C38.5977 90.2862 39.0933 91.9205 38.3124 93.1689C37.5315 94.4174 35.7867 94.8089 34.4052 94.0409Z" fill="#204289"/>
<path opacity="0.9" d="M34.0718 91.2811L34.6593 90.4507L37.551 92.2817L36.9644 93.1121L34.0718 91.2811Z" fill="#EDE5DF"/>
<path opacity="0.9" d="M36.2695 90.1887L37.1931 90.7732L35.3535 93.375L34.4299 92.7906L36.2695 90.1887Z" fill="#EDE5DF"/>
<path opacity="0.9" d="M43.8736 103.178L42.7783 102.441L45.564 97.8448L46.5589 98.5599L43.8736 103.178Z" fill="#C7C0BB"/>
<path opacity="0.9" d="M47.0928 97.9224L45.9966 97.1857L47.7996 94.303L48.7945 95.018L47.0928 97.9224Z" fill="#C7C0BB"/>
<path opacity="0.9" d="M75.9922 69.3918L74.6172 81.671C74.6172 81.671 76.1433 81.7343 76.7759 81.1451C77.4085 80.5559 75.9922 69.3918 75.9922 69.3918Z" fill="#A9ADBA"/>
<path opacity="0.9" d="M59.8318 70.5656L59.7567 70.0331C60.3337 69.9497 60.8543 69.6391 61.2042 69.1694C61.5542 68.6997 61.705 68.1093 61.6235 67.5278L60.7788 61.5154C60.6961 60.9338 60.3877 60.409 59.9214 60.0561C59.4552 59.7033 58.869 59.5512 58.2916 59.6333L55.8729 59.9804L55.7979 59.4489L58.2165 59.1018C58.9338 59 59.6618 59.1889 60.241 59.6272C60.8202 60.0655 61.2033 60.7173 61.3063 61.4398L62.151 67.4521C62.2521 68.1747 62.0647 68.9082 61.63 69.4918C61.1952 70.0755 60.5486 70.4616 59.8318 70.5656V70.5656Z" fill="#2F4563"/>
<path opacity="0.9" d="M54.4208 71.3421C53.7036 71.4439 52.9757 71.2549 52.3966 70.8166C51.8176 70.3783 51.4347 69.7265 51.3319 69.0041L50.4872 62.9918C50.3862 62.269 50.5737 61.5354 51.0086 60.9517C51.4435 60.3681 52.0904 59.9821 52.8073 59.8783L55.7986 59.4498L55.8737 59.9814L52.8824 60.4107C52.3053 60.4939 51.7845 60.8044 51.4343 61.2742C51.0842 61.7439 50.9332 62.3344 51.0147 62.9161L51.8641 68.9285C51.9471 69.5099 52.2555 70.0345 52.7218 70.3872C53.188 70.7398 53.774 70.8917 54.3513 70.8096L54.4208 71.3421Z" fill="#2F4563"/>
<path opacity="0.9" d="M60.2771 70.23C60.2904 70.3242 60.2757 70.4204 60.2349 70.5063C60.194 70.5922 60.1287 70.6639 60.0474 70.7124C59.966 70.7609 59.8722 70.784 59.7779 70.7787C59.6835 70.7735 59.5928 70.7402 59.5172 70.6829C59.4416 70.6257 59.3846 70.5472 59.3533 70.4573C59.322 70.3674 59.3179 70.2702 59.3415 70.178C59.3651 70.0858 59.4153 70.0026 59.4858 69.9392C59.5562 69.8757 59.6438 69.8347 59.7374 69.8214C59.8627 69.8038 59.9897 69.8369 60.0909 69.9135C60.192 69.99 60.2589 70.1038 60.2771 70.23V70.23Z" fill="#204289"/>
<path opacity="0.9" d="M54.8562 71.0074C54.8696 71.1017 54.8549 71.1979 54.814 71.2837C54.7731 71.3696 54.7079 71.4414 54.6265 71.4898C54.5452 71.5383 54.4514 71.5614 54.357 71.5562C54.2626 71.5509 54.1719 71.5176 54.0963 71.4604C54.0207 71.4032 53.9637 71.3247 53.9324 71.2348C53.9011 71.1449 53.897 71.0477 53.9206 70.9554C53.9442 70.8632 53.9944 70.7801 54.0649 70.7166C54.1353 70.6531 54.2229 70.6121 54.3165 70.5988C54.3786 70.5899 54.4418 70.5934 54.5025 70.6091C54.5633 70.6248 54.6203 70.6524 54.6705 70.6903C54.7206 70.7283 54.7628 70.7758 54.7947 70.8302C54.8265 70.8846 54.8475 70.9449 54.8562 71.0074V71.0074Z" fill="#204289"/>
<path opacity="0.9" d="M69.5159 75.3258L68.9969 75.1773C69.0156 75.112 70.8449 68.5285 70.7999 60.3872C70.783 57.2793 70.2527 55.3528 69.1311 54.3228C67.6294 52.9495 65.1469 53.1689 61.7033 53.4716L61.1007 53.5246C59.3175 53.6787 57.9622 54.3228 57.0649 55.4379C55.5416 57.3247 55.8344 59.9625 55.8382 59.989L55.3023 60.0542C55.2882 59.9379 54.9757 57.1677 56.6435 55.0983C57.6393 53.8622 59.1241 53.151 61.0547 52.9826L61.6573 52.9297C65.1028 52.6251 67.8237 52.3849 69.4953 53.919C70.736 55.0539 71.3217 57.1119 71.3405 60.3824C71.3874 68.607 69.5375 75.2596 69.5159 75.3258Z" fill="#2F4563"/>
<path d="M67.6904 48.8013C67.6904 48.8013 67.5187 52.8606 67.9082 53.7393C68.2977 54.6179 62.7461 57.4392 59.356 54.2945C59.356 54.2945 60.1744 49.8843 59.9473 48.3209C59.7201 46.7575 67.6904 48.8013 67.6904 48.8013Z" fill="#EEA987"/>
<path d="M64.4158 31.4026C64.4158 31.4026 70.6197 32.2699 69.897 42.2716C69.1743 52.2732 63.6969 51.5752 63.3355 51.5752C62.9742 51.5752 57.8627 51.8788 57.1973 39.7019C57.1973 39.7009 56.8256 30.6942 64.4158 31.4026Z" fill="#EEA886"/>
<path opacity="0.9" d="M69.9311 39.4504C69.9311 39.4504 70.5881 38.6938 70.8565 39.439C71.1249 40.1843 70.0625 43.4671 69.9846 43.7423C69.9846 43.7423 69.8673 44.0384 69.703 43.8804C69.5388 43.7225 69.9311 39.4504 69.9311 39.4504Z" fill="#EEA886"/>
<path opacity="0.9" d="M57.3446 39.6036C57.3446 39.6036 56.666 38.8593 56.4192 39.6149C56.1723 40.3706 57.3418 43.7698 57.399 43.8956C57.399 43.8956 57.5229 44.1888 57.6806 44.027C57.8383 43.8653 57.3446 39.6036 57.3446 39.6036Z" fill="#EEA886"/>
<path opacity="0.9" d="M69.9605 40.9825L69.1026 42.2224C69.1026 42.2224 69.0688 39.5459 68.9149 39.1288C68.761 38.7117 69.0416 37.2438 68.9149 36.944C68.7882 36.6442 64.7054 37.8614 57.9506 37.3223C57.9506 37.3223 58.7531 39.718 58.3176 39.8986C57.8821 40.0793 58.1627 43.0386 58.1627 43.0386L57.4165 42.2073C57.4165 42.2073 56.4836 37.1634 56.5446 36.316C56.6263 35.1896 56.1335 29.9452 65.6356 30.6356C66.7282 30.71 67.7767 31.0987 68.6568 31.7554C69.6479 32.4998 70.6766 33.6744 70.6212 35.3191C70.548 37.4888 69.9605 40.9825 69.9605 40.9825Z" fill="#E8734D"/>
<path opacity="0.9" d="M60.6338 49.9967C60.6338 49.9967 63.2036 52.8879 67.1146 49.8529C67.1146 49.8529 66.0493 52.1133 63.7132 52.2174C61.3771 52.3214 60.6338 49.9967 60.6338 49.9967Z" fill="#A77860"/>
<path opacity="0.9" d="M70.1287 75.9739C70.8548 75.2422 70.8548 74.0559 70.1287 73.3242C69.4026 72.5925 68.2254 72.5925 67.4993 73.3242C66.7732 74.0559 66.7732 75.2422 67.4993 75.9739C68.2254 76.7056 69.4026 76.7056 70.1287 75.9739Z" fill="#204289"/>
<path opacity="0.9" d="M69.8027 74.6524C69.8025 74.8495 69.7443 75.0421 69.6355 75.2059C69.5267 75.3697 69.3722 75.4974 69.1914 75.5727C69.0106 75.648 68.8117 75.6676 68.6199 75.629C68.4281 75.5904 68.2519 75.4954 68.1136 75.356C67.9754 75.2165 67.8813 75.0389 67.8432 74.8455C67.8051 74.6522 67.8247 74.4518 67.8996 74.2697C67.9745 74.0876 68.1013 73.932 68.264 73.8225C68.4266 73.713 68.6179 73.6545 68.8135 73.6545C68.9435 73.6545 69.0722 73.6804 69.1923 73.7305C69.3123 73.7807 69.4214 73.8542 69.5133 73.9469C69.6052 74.0395 69.678 74.1495 69.7277 74.2706C69.7773 74.3916 69.8028 74.5214 69.8027 74.6524V74.6524Z" fill="#537BB0"/>
<path opacity="0.9" d="M30.3131 92.1777L34.0486 86.6089L32.6924 85.6631L28.803 91.3236L30.3131 92.1777Z" fill="#285173"/>
<path opacity="0.9" d="M101.81 112.15H40.3091V115.433H101.81V112.15Z" fill="#5577FF"/>
</g>
<path d="M83.8144 112.098H100.969V111.072H83.8144V112.098Z" fill="#E2D2CA"/>
<path d="M98.6698 114.768H97.1663V161.438H98.6698V114.768Z" fill="#706865"/>
<path d="M74.5738 112.246H86.4983V110.78H74.5738V112.246Z" fill="#CCBDB7"/>
<path d="M78.2792 112.098H82.7947V98.2772H78.2792V112.098Z" fill="#998E89"/>
<path d="M25.8421 115.433L107.124 115.433V112.114L25.8421 112.114V115.433Z" fill="url(#paint4_linear_79_2213)"/>
<path d="M119.803 96.0537C119.803 96.0537 120.526 106.268 118.546 107.487C117.305 108.252 112.36 110.835 112.507 111.32C112.653 111.804 115.299 115.628 115.299 115.628C115.299 115.628 124.799 109.324 125.105 107.338C125.404 105.397 124.636 92.386 123.332 91.7864C122.354 91.3381 121.838 91.7088 120.605 92.6309C118.876 93.9248 119.803 96.0537 119.803 96.0537Z" fill="#F46524"/>
<path d="M108.116 155.066C108.116 155.066 108.411 157.131 108.449 157.442C108.486 157.752 111.734 157.259 111.734 157.259L111.997 154.8C111.997 154.8 108.522 154.774 108.116 155.066Z" fill="#424773"/>
<path d="M108.413 157.18C108.413 157.18 107.381 158.424 106.388 158.967C105.395 159.51 103.828 159.724 103.239 160.291C102.814 160.696 101.691 162.442 105.827 162.407C109.963 162.372 111.956 162.654 112.397 161.984C112.838 161.315 111.756 157.044 111.756 157.044C111.756 157.044 110.778 157.394 108.413 157.18Z" fill="#292C47"/>
<path d="M87.2983 155.085C87.2983 155.085 87.5931 157.151 87.6306 157.461C87.6681 157.772 90.9156 157.279 90.9156 157.279L91.1784 154.82C91.1784 154.82 87.7038 154.793 87.2983 155.085Z" fill="#424773"/>
<path d="M87.5953 157.199C87.5953 157.199 86.5629 158.444 85.5699 158.986C84.5769 159.528 80.9099 159.975 80.3214 160.537C79.8963 160.942 79.1895 162.574 85.0077 162.422C89.1374 162.313 91.1375 162.668 91.5777 161.999C92.0178 161.331 90.9366 157.059 90.9366 157.059C90.9366 157.059 90.0168 157.438 87.5953 157.199Z" fill="#292C47"/>
<path d="M118.596 119.374C118.596 119.374 106.782 121.388 104.115 121.811C101.447 122.234 86.9791 125.861 85.1705 126.966C83.7298 127.845 85.9214 148.977 86.4385 157.042H92.1356L92.5486 132.857C99.387 133.029 104.266 131.249 109.245 132.006C114.224 132.762 118.375 133.851 121.54 129.574C121.541 129.574 121.658 120.308 118.596 119.374Z" fill="#292C47"/>
<path d="M106.952 157.059L112.504 156.713L113.046 132.855C115.989 132.929 116.998 132.742 119.38 132.45L123.864 121.952C119.935 122.744 107.345 125.943 105.667 126.965C104.227 127.846 106.439 148.997 106.952 157.059Z" fill="#292C47"/>
<path d="M113.159 74.7546C113.159 74.7546 108.829 73.5488 107.177 76.9356C105.525 80.3224 106.273 86.7452 108.456 87.3496C110.639 87.9539 113.777 87.255 114.683 85.1497C115.588 83.0444 116.312 80.0425 116.09 78.1055C115.869 76.1686 114.307 75.2199 113.159 74.7546Z" fill="#EEA886"/>
<path d="M109.586 86.6735C109.586 86.6735 109.633 89.2498 109.352 89.7993C109.07 90.3488 115.381 90.2108 115.381 90.2108C115.381 90.2108 114.387 87.1171 114.951 84.4812C115.506 81.8727 109.586 86.6735 109.586 86.6735Z" fill="#EEA886"/>
<path d="M115.291 83.506C115.291 83.506 114.954 84.1974 113.32 84.0858C111.686 83.9742 109.531 81.988 108.837 81.8102C108.144 81.6324 108.102 81.2352 108.102 81.2352L107.735 81.8925L107.025 82.0013C107.025 82.0013 107.508 80.0151 106.456 79.3096C105.404 78.604 106.925 72.9643 112.256 74.3253C112.256 74.3253 116.323 75.0763 116.378 77.3632C116.432 79.6501 116.08 82.2935 115.291 83.506Z" fill="#3A3F47"/>
<path d="M109.02 89.733C109.02 89.733 109.038 88.6832 109.51 88.583C109.982 88.4827 114.471 87.8604 115.047 88.0893L115.296 89.4748C115.296 89.4748 114.183 90.1634 109.02 89.733Z" fill="#E2D2CA"/>
<path d="M107.721 80.7661C107.842 79.9054 108.812 78.918 109.368 80.2572C109.923 81.5965 108.992 83.5476 108.369 83.4436C107.746 83.3395 107.556 81.935 107.721 80.7661Z" fill="#EEA886"/>
<path d="M90.2174 102.131H90.2256C90.1908 102.147 90.1857 102.148 90.2174 102.131Z" fill="#323657"/>
<path d="M114.421 75.3685C114.421 75.3685 119.701 75.1188 115.342 83.4247L114.421 75.3685Z" fill="#3A3F47"/>
<path d="M126.185 159.888L125.792 161.002L109.197 155.821L109.992 153.566L126.185 159.888Z" fill="#918783"/>
<path d="M108.627 155.027H110.513V136.845H108.627V155.027Z" fill="#918783"/>
<path d="M104.007 136.951H115.133V135.88H104.007V136.951Z" fill="#5E5854"/>
<path d="M92.811 159.888L93.2034 161.002L109.799 155.821L109.07 153.424L92.811 159.888Z" fill="#918783"/>
<path d="M104.503 160.883V162.178L109.798 155.821L109.069 153.424L104.503 160.883Z" fill="#918783"/>
<path d="M92.8103 163C93.6666 163 94.3608 162.301 94.3608 161.438C94.3608 160.575 93.6666 159.875 92.8103 159.875C91.954 159.875 91.2598 160.575 91.2598 161.438C91.2598 162.301 91.954 163 92.8103 163Z" fill="#BFB2AC"/>
<path d="M105.922 163C106.778 163 107.473 162.301 107.473 161.438C107.473 160.575 106.778 159.875 105.922 159.875C105.066 159.875 104.372 160.575 104.372 161.438C104.372 162.301 105.066 163 105.922 163Z" fill="#BFB2AC"/>
<path d="M126.185 163C127.041 163 127.735 162.301 127.735 161.438C127.735 160.575 127.041 159.875 126.185 159.875C125.328 159.875 124.634 160.575 124.634 161.438C124.634 162.301 125.328 163 126.185 163Z" fill="#BFB2AC"/>
<path d="M98.1335 135.88H120.862C121.864 135.88 122.676 135.061 122.676 134.051V133.649C122.676 132.64 121.864 131.821 120.862 131.821H98.1335C97.1315 131.821 96.3192 132.64 96.3192 133.649V134.051C96.3192 135.061 97.1315 135.88 98.1335 135.88Z" fill="#E2D2CA"/>
<path d="M32.3333 161.438H33.8369L33.8369 115.434H32.3333L32.3333 161.438Z" fill="black"/>
<path d="M62.8504 104.935H98.2212C99.2211 104.935 100.032 104.118 100.032 103.11V79.0409C100.032 78.0333 99.2211 77.2165 98.2212 77.2165H62.8504C61.8505 77.2165 61.0399 78.0333 61.0399 79.0409V103.11C61.0399 104.118 61.8505 104.935 62.8504 104.935Z" fill="#B8ABA5"/>
<path d="M62.567 100.591H98.5046V78.7138H62.567V100.591Z" fill="#F5F7FF"/>
<path d="M64.1665 102.654C64.1665 103.277 64.815 103.781 65.6156 103.781C66.4162 103.781 67.0639 103.277 67.0639 102.654C67.0639 102.032 66.4153 101.528 65.6156 101.528C64.816 101.528 64.1665 102.032 64.1665 102.654Z" fill="#918681"/>
<path d="M72.4646 112.15V111.656C72.4646 111.656 73.1526 108.589 78.02 108.589C82.8874 108.589 82.7888 112.15 82.7888 112.15H72.4646Z" fill="#998E89"/>
<path d="M82.8436 109.045C82.8436 109.045 81.7868 108.962 81.3992 108.726C81.0115 108.491 78.6933 106.92 78.1489 107.171C77.6045 107.423 73.9817 108.541 74.1074 109.075C74.2332 109.61 74.5683 109.558 74.8236 109.463C75.0789 109.368 77.7106 108.812 77.9424 108.906C77.9424 108.906 75.3586 109.852 75.3482 110.549C75.3379 111.246 75.8888 111.411 76.1338 111.673C76.3788 111.935 76.6735 112.586 77.3389 112.636C78.0044 112.686 81.2546 111.547 81.9238 111.495C82.593 111.443 83.831 111.537 83.9155 111.426C83.9999 111.316 82.8436 109.045 82.8436 109.045Z" fill="#EEA886"/>
<path d="M102.099 91.1877C105.471 90.5899 109.02 89.7331 109.02 89.7331L115.299 89.4749C115.299 89.4749 121.062 90.7536 123.332 91.7864C123.547 91.8809 123.548 96.9673 124.139 98.3L122.262 102.301C122.262 102.301 121.175 110.224 120.948 113.745C120.844 115.363 121.241 129.38 121.241 129.38C121.241 129.38 120.677 129.664 116.391 130.137C112.105 130.61 101.398 129.965 101.331 129.455C101.263 128.945 103.404 110.463 103.499 109.506C103.644 108.036 103.077 101.248 103.077 101.248C102.27 102.341 100.212 107.277 98.0664 109.626C96.8041 111.007 90.5579 111.854 89.3772 111.896C86.813 111.982 82.1352 112.496 81.9982 112.245C81.8893 112.094 81.5908 108.06 81.8837 107.962C82.1408 107.876 90.8263 107.372 93.0526 106.182C93.8673 105.747 96.301 100.399 96.301 100.399C96.301 100.399 100.239 92.0294 102.099 91.1877Z" fill="#F46524"/>
<path d="M114.14 128.979H125.349C127.273 128.979 128.833 127.407 128.833 125.469V107.122C128.833 105.183 127.273 103.612 125.349 103.612H114.14C112.216 103.612 110.656 105.183 110.656 107.122V125.469C110.656 127.407 112.216 128.979 114.14 128.979Z" fill="#E2D2CA"/>
<path d="M113.878 134.87C116.557 134.87 118.73 133.963 120.338 132.174C123.972 128.132 123.319 121.026 123.289 120.73C123.276 120.597 123.237 120.468 123.174 120.35C123.111 120.232 123.026 120.127 122.924 120.043C122.821 119.958 122.703 119.894 122.576 119.855C122.448 119.816 122.315 119.803 122.183 119.816C122.051 119.83 121.923 119.869 121.805 119.932C121.688 119.995 121.585 120.081 121.501 120.184C121.416 120.288 121.353 120.407 121.315 120.535C121.276 120.663 121.263 120.797 121.276 120.931C121.284 121.012 121.863 127.456 118.836 130.815C117.616 132.175 115.989 132.836 113.879 132.836C113.743 132.832 113.608 132.855 113.482 132.905C113.356 132.954 113.24 133.028 113.143 133.123C113.046 133.218 112.969 133.332 112.916 133.458C112.863 133.584 112.836 133.719 112.836 133.855C112.836 133.992 112.863 134.127 112.916 134.253C112.969 134.378 113.046 134.492 113.143 134.587C113.24 134.682 113.356 134.756 113.482 134.806C113.608 134.855 113.743 134.878 113.879 134.874L113.878 134.87Z" fill="#E2D2CA"/>
<path d="M85.6899 81.6116H95.6987C95.8418 81.6116 95.9578 81.4947 95.9578 81.3505V80.7169C95.9578 80.5727 95.8418 80.4558 95.6987 80.4558H85.6899C85.5468 80.4558 85.4308 80.5727 85.4308 80.7169V81.3505C85.4308 81.4947 85.5468 81.6116 85.6899 81.6116Z" fill="#DFE1E8"/>
<path d="M85.6899 84.0914H95.6987C95.8418 84.0914 95.9578 83.9746 95.9578 83.8304V83.1967C95.9578 83.0525 95.8418 82.9357 95.6987 82.9357H85.6899C85.5468 82.9357 85.4308 83.0525 85.4308 83.1967V83.8304C85.4308 83.9746 85.5468 84.0914 85.6899 84.0914Z" fill="#DFE1E8"/>
<path d="M86.3037 98.8475H95.0849C95.567 98.8475 95.9578 98.4537 95.9578 97.968V86.6583C95.9578 86.1725 95.567 85.7787 95.0849 85.7787H86.3037C85.8216 85.7787 85.4308 86.1725 85.4308 86.6583V97.968C85.4308 98.4537 85.8216 98.8475 86.3037 98.8475Z" fill="#DFE1E8"/>
<path d="M65.9396 98.8475H81.9234C82.6864 98.8475 83.3049 98.2242 83.3049 97.4553V81.848C83.3049 81.0792 82.6864 80.4558 81.9234 80.4558H65.9396C65.1765 80.4558 64.558 81.0792 64.558 81.848V97.4553C64.558 98.2242 65.1765 98.8475 65.9396 98.8475Z" fill="#DFE1E8"/>
</g>
<defs>
<linearGradient id="paint0_linear_79_2213" x1="35.9817" y1="33.0236" x2="35.9817" y2="70.4133" gradientUnits="userSpaceOnUse">
<stop stop-color="#204289"/>
<stop offset="1" stop-color="#5577FF"/>
</linearGradient>
<linearGradient id="paint1_linear_79_2213" x1="10892.1" y1="6951.1" x2="10892.1" y2="12650.7" gradientUnits="userSpaceOnUse">
<stop stop-color="#204289"/>
<stop offset="1" stop-color="#5577FF"/>
</linearGradient>
<linearGradient id="paint2_linear_79_2213" x1="35.9464" y1="35.4432" x2="35.9464" y2="68.1852" gradientUnits="userSpaceOnUse">
<stop stop-color="#D3DAE0"/>
<stop offset="1" stop-color="white"/>
</linearGradient>
<linearGradient id="paint3_linear_79_2213" x1="25773.7" y1="9318.34" x2="29619.1" y2="13667.3" gradientUnits="userSpaceOnUse">
<stop stop-color="#204289"/>
<stop offset="1" stop-color="#5577FF"/>
</linearGradient>
<linearGradient id="paint4_linear_79_2213" x1="870263" y1="4534.82" x2="799871" y2="4534.82" gradientUnits="userSpaceOnUse">
<stop stop-color="#40D5E6"/>
<stop offset="1" stop-color="#5577FF"/>
</linearGradient>
<clipPath id="clip0_79_2213">
<rect width="145" height="163" fill="white"/>
</clipPath>
</defs>
</svg>
